<?xml version="1.0" encoding="UTF-8" standalone="no"?>
<!DOCTYPE svg PUBLIC "-//W3C//DTD SVG 1.1//EN" "http://www.w3.org/Graphics/SVG/1.1/DTD/svg11.dtd">
<svg xmlns:xlink="http://www.w3.org/1999/xlink" version="1.1" xmlns="http://www.w3.org/2000/svg" viewBox="-0.5 -0.5 161 161" width="161" height="161" preserveAspectRatio="xMinYMin meet">
  <symbol id="X" viewBox="0 0 20 20" overflow="visible">
    <rect width="20" height="20" stroke="black" fill="#ddd"/>
    <circle cx="10" cy="10" r="7" fill="black" stroke="white"/>
  </symbol>
  <symbol id="o" viewBox="0 0 20 20" overflow="visible">
    <rect width="20" height="20" stroke="black" fill="#ddd"/>
    <circle cx="10" cy="10" r="7" fill="white" stroke="black"/>
  </symbol>
  <use xlink:href="#X" x="0" y="0" width="20" height="20"/>
  <use xlink:href="#X" x="20" y="0" width="20" height="20"/>
  <use xlink:href="#X" x="40" y="0" width="20" height="20"/>
  <use xlink:href="#X" x="60" y="0" width="20" height="20"/>
  <use xlink:href="#X" x="80" y="0" width="20" height="20"/>
  <use xlink:href="#X" x="100" y="0" width="20" height="20"/>
  <use xlink:href="#X" x="120" y="0" width="20" height="20"/>
  <use xlink:href="#X" x="140" y="0" width="20" height="20"/>
  <use xlink:href="#X" x="0" y="20" width="20" height="20"/>
  <use xlink:href="#o" x="20" y="20" width="20" height="20"/>
  <use xlink:href="#X" x="40" y="20" width="20" height="20"/>
  <use xlink:href="#o" x="60" y="20" width="20" height="20"/>
  <use xlink:href="#X" x="80" y="20" width="20" height="20"/>
  <use xlink:href="#o" x="100" y="20" width="20" height="20"/>
  <use xlink:href="#X" x="120" y="20" width="20" height="20"/>
  <use xlink:href="#o" x="140" y="20" width="20" height="20"/>
  <use xlink:href="#X" x="0" y="40" width="20" height="20"/>
  <use xlink:href="#o" x="20" y="40" width="20" height="20"/>
  <use xlink:href="#X" x="40" y="40" width="20" height="20"/>
  <use xlink:href="#o" x="60" y="40" width="20" height="20"/>
  <use xlink:href="#X" x="80" y="40" width="20" height="20"/>
  <use xlink:href="#o" x="100" y="40" width="20" height="20"/>
  <use xlink:href="#X" x="120" y="40" width="20" height="20"/>
  <use xlink:href="#o" x="140" y="40" width="20" height="20"/>
  <use xlink:href="#X" x="0" y="60" width="20" height="20"/>
  <use xlink:href="#o" x="20" y="60" width="20" height="20"/>
  <use xlink:href="#X" x="40" y="60" width="20" height="20"/>
  <use xlink:href="#o" x="60" y="60" width="20" height="20"/>
  <use xlink:href="#X" x="80" y="60" width="20" height="20"/>
  <use xlink:href="#o" x="100" y="60" width="20" height="20"/>
  <use xlink:href="#X" x="120" y="60" width="20" height="20"/>
  <use xlink:href="#o" x="140" y="60" width="20" height="20"/>
  <use xlink:href="#X" x="0" y="80" width="20" height="20"/>
  <use xlink:href="#o" x="20" y="80" width="20" height="20"/>
  <use xlink:href="#X" x="40" y="80" width="20" height="20"/>
  <use xlink:href="#o" x="60" y="80" width="20" height="20"/>
  <use xlink:href="#X" x="80" y="80" width="20" height="20"/>
  <use xlink:href="#o" x="100" y="80" width="20" height="20"/>
  <use xlink:href="#X" x="120" y="80" width="20" height="20"/>
  <use xlink:href="#o" x="140" y="80" width="20" height="20"/>
  <use xlink:href="#X" x="0" y="100" width="20" height="20"/>
  <use xlink:href="#o" x="20" y="100" width="20" height="20"/>
  <use xlink:href="#X" x="40" y="100" width="20" height="20"/>
  <use xlink:href="#o" x="60" y="100" width="20" height="20"/>
  <use xlink:href="#X" x="80" y="100" width="20" height="20"/>
  <use xlink:href="#o" x="100" y="100" width="20" height="20"/>
  <use xlink:href="#X" x="120" y="100" width="20" height="20"/>
  <use xlink:href="#o" x="140" y="100" width="20" height="20"/>
  <use xlink:href="#X" x="0" y="120" width="20" height="20"/>
  <use xlink:href="#o" x="20" y="120" width="20" height="20"/>
  <use xlink:href="#X" x="40" y="120" width="20" height="20"/>
  <use xlink:href="#o" x="60" y="120" width="20" height="20"/>
  <use xlink:href="#X" x="80" y="120" width="20" height="20"/>
  <use xlink:href="#o" x="100" y="120" width="20" height="20"/>
  <use xlink:href="#X" x="120" y="120" width="20" height="20"/>
  <use xlink:href="#o" x="140" y="120" width="20" height="20"/>
  <use xlink:href="#o" x="0" y="140" width="20" height="20"/>
  <use xlink:href="#o" x="20" y="140" width="20" height="20"/>
  <use xlink:href="#o" x="40" y="140" width="20" height="20"/>
  <use xlink:href="#o" x="60" y="140" width="20" height="20"/>
  <use xlink:href="#o" x="80" y="140" width="20" height="20"/>
  <use xlink:href="#o" x="100" y="140" width="20" height="20"/>
  <use xlink:href="#o" x="120" y="140" width="20" height="20"/>
  <use xlink:href="#o" x="140" y="140" width="20" height="20"/>
</svg>