<?xml version="1.0" encoding="UTF-8" standalone="no"?>
<!DOCTYPE svg PUBLIC "-//W3C//DTD SVG 1.1//EN" "http://www.w3.org/Graphics/SVG/1.1/DTD/svg11.dtd">
<svg xmlns:xlink="http://www.w3.org/1999/xlink" version="1.1" xmlns="http://www.w3.org/2000/svg" viewBox="0 -0.5 140 121" width="140" height="121" preserveAspectRatio="xMinYMin meet">
  <symbol id="_20" viewBox="0 0 20 20" overflow="visible"/>
  <symbol id="o" viewBox="0 0 20 20" overflow="visible">
    <rect width="20" height="20" stroke="black" fill="#ddd"/>
    <circle cx="10" cy="10" r="7" fill="white" stroke="black"/>
  </symbol>
  <symbol id="_3C" viewBox="0 0 20 20" overflow="visible">
    <line x1="9" y1="10" x2="20" y2="10" stroke="black" stroke-width="5"/>
    <polygon points="3,10 10,4 10,16"/>
  </symbol>
  <symbol id="X" viewBox="0 0 20 20" overflow="visible">
    <rect width="20" height="20" stroke="black" fill="#ddd"/>
    <circle cx="10" cy="10" r="7" fill="black" stroke="white"/>
  </symbol>
  <symbol id="_25" viewBox="0 0 20 20" overflow="visible">
    <rect width="20" height="20" stroke="black" fill="#ddd"/>
    <circle cx="10" cy="10" r="7" fill="black" stroke="black"/>
    <circle cx="10" cy="10" r="7" fill="none" stroke="white" stroke-dasharray="2,2"/>
  </symbol>
  <symbol id="_3E" viewBox="0 0 20 20" transform="rotate(180,10,10)" overflow="visible">
    <line x1="9" y1="10" x2="20" y2="10" stroke="black" stroke-width="5"/>
    <polygon points="3,10 10,4 10,16"/>
  </symbol>
  <use xlink:href="#_20" x="0" y="0" width="20" height="20"/>
  <use xlink:href="#o" x="20" y="0" width="20" height="20"/>
  <use xlink:href="#o" x="40" y="0" width="20" height="20"/>
  <use xlink:href="#o" x="60" y="0" width="20" height="20"/>
  <use xlink:href="#o" x="80" y="0" width="20" height="20"/>
  <use xlink:href="#o" x="100" y="0" width="20" height="20"/>
  <use xlink:href="#_3C" x="0" y="20" width="20" height="20"/>
  <use xlink:href="#X" x="20" y="20" width="20" height="20"/>
  <use xlink:href="#X" x="40" y="20" width="20" height="20"/>
  <use xlink:href="#_25" x="60" y="20" width="20" height="20"/>
  <use xlink:href="#o" x="80" y="20" width="20" height="20"/>
  <use xlink:href="#o" x="100" y="20" width="20" height="20"/>
  <use xlink:href="#_20" x="0" y="40" width="20" height="20"/>
  <use xlink:href="#o" x="20" y="40" width="20" height="20"/>
  <use xlink:href="#o" x="40" y="40" width="20" height="20"/>
  <use xlink:href="#_25" x="60" y="40" width="20" height="20"/>
  <use xlink:href="#X" x="80" y="40" width="20" height="20"/>
  <use xlink:href="#X" x="100" y="40" width="20" height="20"/>
  <use xlink:href="#_3E" x="120" y="40" width="20" height="20"/>
  <use xlink:href="#_3C" x="0" y="60" width="20" height="20"/>
  <use xlink:href="#X" x="20" y="60" width="20" height="20"/>
  <use xlink:href="#X" x="40" y="60" width="20" height="20"/>
  <use xlink:href="#_25" x="60" y="60" width="20" height="20"/>
  <use xlink:href="#o" x="80" y="60" width="20" height="20"/>
  <use xlink:href="#o" x="100" y="60" width="20" height="20"/>
  <use xlink:href="#_20" x="0" y="80" width="20" height="20"/>
  <use xlink:href="#o" x="20" y="80" width="20" height="20"/>
  <use xlink:href="#o" x="40" y="80" width="20" height="20"/>
  <use xlink:href="#_25" x="60" y="80" width="20" height="20"/>
  <use xlink:href="#X" x="80" y="80" width="20" height="20"/>
  <use xlink:href="#X" x="100" y="80" width="20" height="20"/>
  <use xlink:href="#_3E" x="120" y="80" width="20" height="20"/>
  <use xlink:href="#_20" x="0" y="100" width="20" height="20"/>
  <use xlink:href="#o" x="20" y="100" width="20" height="20"/>
  <use xlink:href="#o" x="40" y="100" width="20" height="20"/>
  <use xlink:href="#o" x="60" y="100" width="20" height="20"/>
  <use xlink:href="#o" x="80" y="100" width="20" height="20"/>
  <use xlink:href="#o" x="100" y="100" width="20" height="20"/>
</svg>