<?xml version="1.0" encoding="UTF-8" standalone="no"?>
<!DOCTYPE svg PUBLIC "-//W3C//DTD SVG 1.1//EN" "http://www.w3.org/Graphics/SVG/1.1/DTD/svg11.dtd">
<svg xmlns:xlink="http://www.w3.org/1999/xlink" version="1.1" xmlns="http://www.w3.org/2000/svg" viewBox="0 0 360 360" width="360" height="360" preserveAspectRatio="xMinYMin meet">
  <symbol id="_20" viewBox="0 0 20 20" overflow="visible"/>
  <symbol id="_5E" viewBox="0 0 20 20" transform="rotate(90,10,10)" overflow="visible">
    <line x1="9" y1="10" x2="20" y2="10" stroke="black" stroke-width="5"/>
    <polygon points="3,10 10,4 10,16"/>
  </symbol>
  <symbol id="X" viewBox="0 0 20 20" overflow="visible">
    <rect width="20" height="20" stroke="black" fill="#ddd"/>
    <circle cx="10" cy="10" r="7" fill="black" stroke="white"/>
  </symbol>
  <symbol id="o" viewBox="0 0 20 20" overflow="visible">
    <rect width="20" height="20" stroke="black" fill="#ddd"/>
    <circle cx="10" cy="10" r="7" fill="white" stroke="black"/>
  </symbol>
  <symbol id="_2E" viewBox="0 0 20 20" overflow="visible">
    <rect width="20" height="20" stroke="black" fill="#ddd"/>
  </symbol>
  <symbol id="_3C" viewBox="0 0 20 20" overflow="visible">
    <line x1="9" y1="10" x2="20" y2="10" stroke="black" stroke-width="5"/>
    <polygon points="3,10 10,4 10,16"/>
  </symbol>
  <symbol id="_3E" viewBox="0 0 20 20" transform="rotate(180,10,10)" overflow="visible">
    <line x1="9" y1="10" x2="20" y2="10" stroke="black" stroke-width="5"/>
    <polygon points="3,10 10,4 10,16"/>
  </symbol>
  <symbol id="v" viewBox="0 0 20 20" transform="rotate(-90,10,10)" overflow="visible">
    <line x1="9" y1="10" x2="20" y2="10" stroke="black" stroke-width="5"/>
    <polygon points="3,10 10,4 10,16"/>
  </symbol>
  <use xlink:href="#_20" x="0" y="0" width="20" height="20"/>
  <use xlink:href="#_20" x="20" y="0" width="20" height="20"/>
  <use xlink:href="#_20" x="40" y="0" width="20" height="20"/>
  <use xlink:href="#_20" x="60" y="0" width="20" height="20"/>
  <use xlink:href="#_20" x="80" y="0" width="20" height="20"/>
  <use xlink:href="#_20" x="100" y="0" width="20" height="20"/>
  <use xlink:href="#_20" x="120" y="0" width="20" height="20"/>
  <use xlink:href="#_20" x="140" y="0" width="20" height="20"/>
  <use xlink:href="#_20" x="160" y="0" width="20" height="20"/>
  <use xlink:href="#_20" x="180" y="0" width="20" height="20"/>
  <use xlink:href="#_20" x="200" y="0" width="20" height="20"/>
  <use xlink:href="#_5E" x="220" y="0" width="20" height="20"/>
  <use xlink:href="#_20" x="0" y="20" width="20" height="20"/>
  <use xlink:href="#X" x="20" y="20" width="20" height="20"/>
  <use xlink:href="#o" x="40" y="20" width="20" height="20"/>
  <use xlink:href="#X" x="60" y="20" width="20" height="20"/>
  <use xlink:href="#o" x="80" y="20" width="20" height="20"/>
  <use xlink:href="#X" x="100" y="20" width="20" height="20"/>
  <use xlink:href="#o" x="120" y="20" width="20" height="20"/>
  <use xlink:href="#X" x="140" y="20" width="20" height="20"/>
  <use xlink:href="#o" x="160" y="20" width="20" height="20"/>
  <use xlink:href="#X" x="180" y="20" width="20" height="20"/>
  <use xlink:href="#o" x="200" y="20" width="20" height="20"/>
  <use xlink:href="#X" x="220" y="20" width="20" height="20"/>
  <use xlink:href="#o" x="240" y="20" width="20" height="20"/>
  <use xlink:href="#X" x="260" y="20" width="20" height="20"/>
  <use xlink:href="#o" x="280" y="20" width="20" height="20"/>
  <use xlink:href="#X" x="300" y="20" width="20" height="20"/>
  <use xlink:href="#o" x="320" y="20" width="20" height="20"/>
  <use xlink:href="#_20" x="0" y="40" width="20" height="20"/>
  <use xlink:href="#X" x="20" y="40" width="20" height="20"/>
  <use xlink:href="#o" x="40" y="40" width="20" height="20"/>
  <use xlink:href="#o" x="60" y="40" width="20" height="20"/>
  <use xlink:href="#o" x="80" y="40" width="20" height="20"/>
  <use xlink:href="#o" x="100" y="40" width="20" height="20"/>
  <use xlink:href="#o" x="120" y="40" width="20" height="20"/>
  <use xlink:href="#o" x="140" y="40" width="20" height="20"/>
  <use xlink:href="#o" x="160" y="40" width="20" height="20"/>
  <use xlink:href="#o" x="180" y="40" width="20" height="20"/>
  <use xlink:href="#o" x="200" y="40" width="20" height="20"/>
  <use xlink:href="#X" x="220" y="40" width="20" height="20"/>
  <use xlink:href="#o" x="240" y="40" width="20" height="20"/>
  <use xlink:href="#X" x="260" y="40" width="20" height="20"/>
  <use xlink:href="#o" x="280" y="40" width="20" height="20"/>
  <use xlink:href="#X" x="300" y="40" width="20" height="20"/>
  <use xlink:href="#o" x="320" y="40" width="20" height="20"/>
  <use xlink:href="#_20" x="0" y="60" width="20" height="20"/>
  <use xlink:href="#X" x="20" y="60" width="20" height="20"/>
  <use xlink:href="#o" x="40" y="60" width="20" height="20"/>
  <use xlink:href="#X" x="60" y="60" width="20" height="20"/>
  <use xlink:href="#X" x="80" y="60" width="20" height="20"/>
  <use xlink:href="#X" x="100" y="60" width="20" height="20"/>
  <use xlink:href="#X" x="120" y="60" width="20" height="20"/>
  <use xlink:href="#X" x="140" y="60" width="20" height="20"/>
  <use xlink:href="#X" x="160" y="60" width="20" height="20"/>
  <use xlink:href="#X" x="180" y="60" width="20" height="20"/>
  <use xlink:href="#X" x="200" y="60" width="20" height="20"/>
  <use xlink:href="#X" x="220" y="60" width="20" height="20"/>
  <use xlink:href="#o" x="240" y="60" width="20" height="20"/>
  <use xlink:href="#X" x="260" y="60" width="20" height="20"/>
  <use xlink:href="#o" x="280" y="60" width="20" height="20"/>
  <use xlink:href="#X" x="300" y="60" width="20" height="20"/>
  <use xlink:href="#o" x="320" y="60" width="20" height="20"/>
  <use xlink:href="#_20" x="0" y="80" width="20" height="20"/>
  <use xlink:href="#X" x="20" y="80" width="20" height="20"/>
  <use xlink:href="#o" x="40" y="80" width="20" height="20"/>
  <use xlink:href="#X" x="60" y="80" width="20" height="20"/>
  <use xlink:href="#o" x="80" y="80" width="20" height="20"/>
  <use xlink:href="#X" x="100" y="80" width="20" height="20"/>
  <use xlink:href="#o" x="120" y="80" width="20" height="20"/>
  <use xlink:href="#o" x="140" y="80" width="20" height="20"/>
  <use xlink:href="#o" x="160" y="80" width="20" height="20"/>
  <use xlink:href="#o" x="180" y="80" width="20" height="20"/>
  <use xlink:href="#o" x="200" y="80" width="20" height="20"/>
  <use xlink:href="#X" x="220" y="80" width="20" height="20"/>
  <use xlink:href="#o" x="240" y="80" width="20" height="20"/>
  <use xlink:href="#o" x="260" y="80" width="20" height="20"/>
  <use xlink:href="#o" x="280" y="80" width="20" height="20"/>
  <use xlink:href="#X" x="300" y="80" width="20" height="20"/>
  <use xlink:href="#o" x="320" y="80" width="20" height="20"/>
  <use xlink:href="#_20" x="0" y="100" width="20" height="20"/>
  <use xlink:href="#X" x="20" y="100" width="20" height="20"/>
  <use xlink:href="#o" x="40" y="100" width="20" height="20"/>
  <use xlink:href="#X" x="60" y="100" width="20" height="20"/>
  <use xlink:href="#o" x="80" y="100" width="20" height="20"/>
  <use xlink:href="#X" x="100" y="100" width="20" height="20"/>
  <use xlink:href="#o" x="120" y="100" width="20" height="20"/>
  <use xlink:href="#X" x="140" y="100" width="20" height="20"/>
  <use xlink:href="#_2E" x="160" y="100" width="20" height="20"/>
  <use xlink:href="#X" x="180" y="100" width="20" height="20"/>
  <use xlink:href="#_2E" x="200" y="100" width="20" height="20"/>
  <use xlink:href="#X" x="220" y="100" width="20" height="20"/>
  <use xlink:href="#_2E" x="240" y="100" width="20" height="20"/>
  <use xlink:href="#X" x="260" y="100" width="20" height="20"/>
  <use xlink:href="#o" x="280" y="100" width="20" height="20"/>
  <use xlink:href="#X" x="300" y="100" width="20" height="20"/>
  <use xlink:href="#o" x="320" y="100" width="20" height="20"/>
  <use xlink:href="#_20" x="0" y="120" width="20" height="20"/>
  <use xlink:href="#X" x="20" y="120" width="20" height="20"/>
  <use xlink:href="#o" x="40" y="120" width="20" height="20"/>
  <use xlink:href="#X" x="60" y="120" width="20" height="20"/>
  <use xlink:href="#o" x="80" y="120" width="20" height="20"/>
  <use xlink:href="#X" x="100" y="120" width="20" height="20"/>
  <use xlink:href="#o" x="120" y="120" width="20" height="20"/>
  <use xlink:href="#X" x="140" y="120" width="20" height="20"/>
  <use xlink:href="#o" x="160" y="120" width="20" height="20"/>
  <use xlink:href="#X" x="180" y="120" width="20" height="20"/>
  <use xlink:href="#o" x="200" y="120" width="20" height="20"/>
  <use xlink:href="#X" x="220" y="120" width="20" height="20"/>
  <use xlink:href="#o" x="240" y="120" width="20" height="20"/>
  <use xlink:href="#X" x="260" y="120" width="20" height="20"/>
  <use xlink:href="#o" x="280" y="120" width="20" height="20"/>
  <use xlink:href="#X" x="300" y="120" width="20" height="20"/>
  <use xlink:href="#o" x="320" y="120" width="20" height="20"/>
  <use xlink:href="#_20" x="0" y="140" width="20" height="20"/>
  <use xlink:href="#X" x="20" y="140" width="20" height="20"/>
  <use xlink:href="#o" x="40" y="140" width="20" height="20"/>
  <use xlink:href="#X" x="60" y="140" width="20" height="20"/>
  <use xlink:href="#o" x="80" y="140" width="20" height="20"/>
  <use xlink:href="#X" x="100" y="140" width="20" height="20"/>
  <use xlink:href="#o" x="120" y="140" width="20" height="20"/>
  <use xlink:href="#_2E" x="140" y="140" width="20" height="20"/>
  <use xlink:href="#_2E" x="160" y="140" width="20" height="20"/>
  <use xlink:href="#_2E" x="180" y="140" width="20" height="20"/>
  <use xlink:href="#_2E" x="200" y="140" width="20" height="20"/>
  <use xlink:href="#_2E" x="220" y="140" width="20" height="20"/>
  <use xlink:href="#_2E" x="240" y="140" width="20" height="20"/>
  <use xlink:href="#_2E" x="260" y="140" width="20" height="20"/>
  <use xlink:href="#o" x="280" y="140" width="20" height="20"/>
  <use xlink:href="#X" x="300" y="140" width="20" height="20"/>
  <use xlink:href="#o" x="320" y="140" width="20" height="20"/>
  <use xlink:href="#_20" x="0" y="160" width="20" height="20"/>
  <use xlink:href="#X" x="20" y="160" width="20" height="20"/>
  <use xlink:href="#o" x="40" y="160" width="20" height="20"/>
  <use xlink:href="#X" x="60" y="160" width="20" height="20"/>
  <use xlink:href="#o" x="80" y="160" width="20" height="20"/>
  <use xlink:href="#X" x="100" y="160" width="20" height="20"/>
  <use xlink:href="#_2E" x="120" y="160" width="20" height="20"/>
  <use xlink:href="#o" x="140" y="160" width="20" height="20"/>
  <use xlink:href="#X" x="160" y="160" width="20" height="20"/>
  <use xlink:href="#o" x="180" y="160" width="20" height="20"/>
  <use xlink:href="#X" x="200" y="160" width="20" height="20"/>
  <use xlink:href="#o" x="220" y="160" width="20" height="20"/>
  <use xlink:href="#X" x="240" y="160" width="20" height="20"/>
  <use xlink:href="#o" x="260" y="160" width="20" height="20"/>
  <use xlink:href="#_2E" x="280" y="160" width="20" height="20"/>
  <use xlink:href="#X" x="300" y="160" width="20" height="20"/>
  <use xlink:href="#o" x="320" y="160" width="20" height="20"/>
  <use xlink:href="#_20" x="0" y="180" width="20" height="20"/>
  <use xlink:href="#X" x="20" y="180" width="20" height="20"/>
  <use xlink:href="#o" x="40" y="180" width="20" height="20"/>
  <use xlink:href="#X" x="60" y="180" width="20" height="20"/>
  <use xlink:href="#o" x="80" y="180" width="20" height="20"/>
  <use xlink:href="#X" x="100" y="180" width="20" height="20"/>
  <use xlink:href="#_2E" x="120" y="180" width="20" height="20"/>
  <use xlink:href="#o" x="140" y="180" width="20" height="20"/>
  <use xlink:href="#X" x="160" y="180" width="20" height="20"/>
  <use xlink:href="#o" x="180" y="180" width="20" height="20"/>
  <use xlink:href="#X" x="200" y="180" width="20" height="20"/>
  <use xlink:href="#o" x="220" y="180" width="20" height="20"/>
  <use xlink:href="#X" x="240" y="180" width="20" height="20"/>
  <use xlink:href="#o" x="260" y="180" width="20" height="20"/>
  <use xlink:href="#_2E" x="280" y="180" width="20" height="20"/>
  <use xlink:href="#X" x="300" y="180" width="20" height="20"/>
  <use xlink:href="#o" x="320" y="180" width="20" height="20"/>
  <use xlink:href="#_20" x="0" y="200" width="20" height="20"/>
  <use xlink:href="#X" x="20" y="200" width="20" height="20"/>
  <use xlink:href="#o" x="40" y="200" width="20" height="20"/>
  <use xlink:href="#X" x="60" y="200" width="20" height="20"/>
  <use xlink:href="#o" x="80" y="200" width="20" height="20"/>
  <use xlink:href="#X" x="100" y="200" width="20" height="20"/>
  <use xlink:href="#o" x="120" y="200" width="20" height="20"/>
  <use xlink:href="#_2E" x="140" y="200" width="20" height="20"/>
  <use xlink:href="#_2E" x="160" y="200" width="20" height="20"/>
  <use xlink:href="#_2E" x="180" y="200" width="20" height="20"/>
  <use xlink:href="#_2E" x="200" y="200" width="20" height="20"/>
  <use xlink:href="#_2E" x="220" y="200" width="20" height="20"/>
  <use xlink:href="#_2E" x="240" y="200" width="20" height="20"/>
  <use xlink:href="#_2E" x="260" y="200" width="20" height="20"/>
  <use xlink:href="#o" x="280" y="200" width="20" height="20"/>
  <use xlink:href="#X" x="300" y="200" width="20" height="20"/>
  <use xlink:href="#o" x="320" y="200" width="20" height="20"/>
  <use xlink:href="#_20" x="0" y="220" width="20" height="20"/>
  <use xlink:href="#o" x="20" y="220" width="20" height="20"/>
  <use xlink:href="#o" x="40" y="220" width="20" height="20"/>
  <use xlink:href="#X" x="60" y="220" width="20" height="20"/>
  <use xlink:href="#o" x="80" y="220" width="20" height="20"/>
  <use xlink:href="#o" x="100" y="220" width="20" height="20"/>
  <use xlink:href="#o" x="120" y="220" width="20" height="20"/>
  <use xlink:href="#X" x="140" y="220" width="20" height="20"/>
  <use xlink:href="#o" x="160" y="220" width="20" height="20"/>
  <use xlink:href="#X" x="180" y="220" width="20" height="20"/>
  <use xlink:href="#o" x="200" y="220" width="20" height="20"/>
  <use xlink:href="#X" x="220" y="220" width="20" height="20"/>
  <use xlink:href="#o" x="240" y="220" width="20" height="20"/>
  <use xlink:href="#X" x="260" y="220" width="20" height="20"/>
  <use xlink:href="#o" x="280" y="220" width="20" height="20"/>
  <use xlink:href="#o" x="300" y="220" width="20" height="20"/>
  <use xlink:href="#o" x="320" y="220" width="20" height="20"/>
  <use xlink:href="#_3C" x="0" y="240" width="20" height="20"/>
  <use xlink:href="#X" x="20" y="240" width="20" height="20"/>
  <use xlink:href="#o" x="40" y="240" width="20" height="20"/>
  <use xlink:href="#X" x="60" y="240" width="20" height="20"/>
  <use xlink:href="#X" x="80" y="240" width="20" height="20"/>
  <use xlink:href="#X" x="100" y="240" width="20" height="20"/>
  <use xlink:href="#X" x="120" y="240" width="20" height="20"/>
  <use xlink:href="#X" x="140" y="240" width="20" height="20"/>
  <use xlink:href="#o" x="160" y="240" width="20" height="20"/>
  <use xlink:href="#X" x="180" y="240" width="20" height="20"/>
  <use xlink:href="#o" x="200" y="240" width="20" height="20"/>
  <use xlink:href="#X" x="220" y="240" width="20" height="20"/>
  <use xlink:href="#o" x="240" y="240" width="20" height="20"/>
  <use xlink:href="#X" x="260" y="240" width="20" height="20"/>
  <use xlink:href="#X" x="280" y="240" width="20" height="20"/>
  <use xlink:href="#X" x="300" y="240" width="20" height="20"/>
  <use xlink:href="#X" x="320" y="240" width="20" height="20"/>
  <use xlink:href="#_3E" x="340" y="240" width="20" height="20"/>
  <use xlink:href="#_20" x="0" y="260" width="20" height="20"/>
  <use xlink:href="#X" x="20" y="260" width="20" height="20"/>
  <use xlink:href="#o" x="40" y="260" width="20" height="20"/>
  <use xlink:href="#o" x="60" y="260" width="20" height="20"/>
  <use xlink:href="#o" x="80" y="260" width="20" height="20"/>
  <use xlink:href="#o" x="100" y="260" width="20" height="20"/>
  <use xlink:href="#o" x="120" y="260" width="20" height="20"/>
  <use xlink:href="#o" x="140" y="260" width="20" height="20"/>
  <use xlink:href="#o" x="160" y="260" width="20" height="20"/>
  <use xlink:href="#X" x="180" y="260" width="20" height="20"/>
  <use xlink:href="#o" x="200" y="260" width="20" height="20"/>
  <use xlink:href="#X" x="220" y="260" width="20" height="20"/>
  <use xlink:href="#o" x="240" y="260" width="20" height="20"/>
  <use xlink:href="#X" x="260" y="260" width="20" height="20"/>
  <use xlink:href="#o" x="280" y="260" width="20" height="20"/>
  <use xlink:href="#X" x="300" y="260" width="20" height="20"/>
  <use xlink:href="#o" x="320" y="260" width="20" height="20"/>
  <use xlink:href="#_20" x="0" y="280" width="20" height="20"/>
  <use xlink:href="#X" x="20" y="280" width="20" height="20"/>
  <use xlink:href="#X" x="40" y="280" width="20" height="20"/>
  <use xlink:href="#X" x="60" y="280" width="20" height="20"/>
  <use xlink:href="#X" x="80" y="280" width="20" height="20"/>
  <use xlink:href="#X" x="100" y="280" width="20" height="20"/>
  <use xlink:href="#X" x="120" y="280" width="20" height="20"/>
  <use xlink:href="#X" x="140" y="280" width="20" height="20"/>
  <use xlink:href="#X" x="160" y="280" width="20" height="20"/>
  <use xlink:href="#X" x="180" y="280" width="20" height="20"/>
  <use xlink:href="#o" x="200" y="280" width="20" height="20"/>
  <use xlink:href="#X" x="220" y="280" width="20" height="20"/>
  <use xlink:href="#o" x="240" y="280" width="20" height="20"/>
  <use xlink:href="#X" x="260" y="280" width="20" height="20"/>
  <use xlink:href="#o" x="280" y="280" width="20" height="20"/>
  <use xlink:href="#X" x="300" y="280" width="20" height="20"/>
  <use xlink:href="#o" x="320" y="280" width="20" height="20"/>
  <use xlink:href="#_20" x="0" y="300" width="20" height="20"/>
  <use xlink:href="#X" x="20" y="300" width="20" height="20"/>
  <use xlink:href="#o" x="40" y="300" width="20" height="20"/>
  <use xlink:href="#X" x="60" y="300" width="20" height="20"/>
  <use xlink:href="#o" x="80" y="300" width="20" height="20"/>
  <use xlink:href="#X" x="100" y="300" width="20" height="20"/>
  <use xlink:href="#o" x="120" y="300" width="20" height="20"/>
  <use xlink:href="#X" x="140" y="300" width="20" height="20"/>
  <use xlink:href="#o" x="160" y="300" width="20" height="20"/>
  <use xlink:href="#X" x="180" y="300" width="20" height="20"/>
  <use xlink:href="#o" x="200" y="300" width="20" height="20"/>
  <use xlink:href="#X" x="220" y="300" width="20" height="20"/>
  <use xlink:href="#o" x="240" y="300" width="20" height="20"/>
  <use xlink:href="#X" x="260" y="300" width="20" height="20"/>
  <use xlink:href="#o" x="280" y="300" width="20" height="20"/>
  <use xlink:href="#X" x="300" y="300" width="20" height="20"/>
  <use xlink:href="#o" x="320" y="300" width="20" height="20"/>
  <use xlink:href="#_20" x="0" y="320" width="20" height="20"/>
  <use xlink:href="#X" x="20" y="320" width="20" height="20"/>
  <use xlink:href="#o" x="40" y="320" width="20" height="20"/>
  <use xlink:href="#X" x="60" y="320" width="20" height="20"/>
  <use xlink:href="#o" x="80" y="320" width="20" height="20"/>
  <use xlink:href="#X" x="100" y="320" width="20" height="20"/>
  <use xlink:href="#o" x="120" y="320" width="20" height="20"/>
  <use xlink:href="#X" x="140" y="320" width="20" height="20"/>
  <use xlink:href="#o" x="160" y="320" width="20" height="20"/>
  <use xlink:href="#X" x="180" y="320" width="20" height="20"/>
  <use xlink:href="#o" x="200" y="320" width="20" height="20"/>
  <use xlink:href="#X" x="220" y="320" width="20" height="20"/>
  <use xlink:href="#o" x="240" y="320" width="20" height="20"/>
  <use xlink:href="#X" x="260" y="320" width="20" height="20"/>
  <use xlink:href="#o" x="280" y="320" width="20" height="20"/>
  <use xlink:href="#X" x="300" y="320" width="20" height="20"/>
  <use xlink:href="#o" x="320" y="320" width="20" height="20"/>
  <use xlink:href="#_20" x="0" y="340" width="20" height="20"/>
  <use xlink:href="#_20" x="20" y="340" width="20" height="20"/>
  <use xlink:href="#_20" x="40" y="340" width="20" height="20"/>
  <use xlink:href="#_20" x="60" y="340" width="20" height="20"/>
  <use xlink:href="#_20" x="80" y="340" width="20" height="20"/>
  <use xlink:href="#_20" x="100" y="340" width="20" height="20"/>
  <use xlink:href="#_20" x="120" y="340" width="20" height="20"/>
  <use xlink:href="#_20" x="140" y="340" width="20" height="20"/>
  <use xlink:href="#_20" x="160" y="340" width="20" height="20"/>
  <use xlink:href="#_20" x="180" y="340" width="20" height="20"/>
  <use xlink:href="#_20" x="200" y="340" width="20" height="20"/>
  <use xlink:href="#v" x="220" y="340" width="20" height="20"/>
</svg>