<?xml version="1.0" encoding="UTF-8" standalone="no"?>
<!DOCTYPE svg PUBLIC "-//W3C//DTD SVG 1.1//EN" "http://www.w3.org/Graphics/SVG/1.1/DTD/svg11.dtd">
<svg xmlns:xlink="http://www.w3.org/1999/xlink" version="1.1" xmlns="http://www.w3.org/2000/svg" viewBox="-0.5 -0.5 221 240.5" width="221" height="240.5" preserveAspectRatio="xMinYMin meet">
  <symbol id="_30" viewBox="0 0 20 20" overflow="visible">
    <rect width="20" height="20" stroke="black" fill="#ddd"/>
    <circle cx="10" cy="10" r="7" fill="white" stroke="white"/>
    <circle cx="10" cy="10" r="7" fill="none" stroke="black" stroke-dasharray="2,2"/>
  </symbol>
  <symbol id="X" viewBox="0 0 20 20" overflow="visible">
    <rect width="20" height="20" stroke="black" fill="#ddd"/>
    <circle cx="10" cy="10" r="7" fill="black" stroke="white"/>
  </symbol>
  <symbol id="o" viewBox="0 0 20 20" overflow="visible">
    <rect width="20" height="20" stroke="black" fill="#ddd"/>
    <circle cx="10" cy="10" r="7" fill="white" stroke="black"/>
  </symbol>
  <symbol id="_25" viewBox="0 0 20 20" overflow="visible">
    <rect width="20" height="20" stroke="black" fill="#ddd"/>
    <circle cx="10" cy="10" r="7" fill="black" stroke="black"/>
    <circle cx="10" cy="10" r="7" fill="none" stroke="white" stroke-dasharray="2,2"/>
  </symbol>
  <symbol id="_20" viewBox="0 0 20 20" overflow="visible"/>
  <symbol id="v" viewBox="0 0 20 20" transform="rotate(-90,10,10)" overflow="visible">
    <line x1="9" y1="10" x2="20" y2="10" stroke="black" stroke-width="5"/>
    <polygon points="3,10 10,4 10,16"/>
  </symbol>
  <use xlink:href="#X" x="0" y="0" width="20" height="20"/>
  <use xlink:href="#o" x="20" y="0" width="20" height="20"/>
  <use xlink:href="#X" x="40" y="0" width="20" height="20"/>
  <use xlink:href="#o" x="60" y="0" width="20" height="20"/>
  <use xlink:href="#X" x="80" y="0" width="20" height="20"/>
  <use xlink:href="#o" x="100" y="0" width="20" height="20"/>
  <use xlink:href="#X" x="120" y="0" width="20" height="20"/>
  <use xlink:href="#o" x="140" y="0" width="20" height="20"/>
  <use xlink:href="#X" x="160" y="0" width="20" height="20"/>
  <use xlink:href="#o" x="180" y="0" width="20" height="20"/>
  <use xlink:href="#X" x="200" y="0" width="20" height="20"/>
  <use xlink:href="#X" x="0" y="20" width="20" height="20"/>
  <use xlink:href="#o" x="20" y="20" width="20" height="20"/>
  <use xlink:href="#o" x="40" y="20" width="20" height="20"/>
  <use xlink:href="#o" x="60" y="20" width="20" height="20"/>
  <use xlink:href="#o" x="80" y="20" width="20" height="20"/>
  <use xlink:href="#o" x="100" y="20" width="20" height="20"/>
  <use xlink:href="#X" x="120" y="20" width="20" height="20"/>
  <use xlink:href="#o" x="140" y="20" width="20" height="20"/>
  <use xlink:href="#o" x="160" y="20" width="20" height="20"/>
  <use xlink:href="#o" x="180" y="20" width="20" height="20"/>
  <use xlink:href="#X" x="200" y="20" width="20" height="20"/>
  <use xlink:href="#X" x="0" y="40" width="20" height="20"/>
  <use xlink:href="#o" x="20" y="40" width="20" height="20"/>
  <use xlink:href="#X" x="40" y="40" width="20" height="20"/>
  <use xlink:href="#_25" x="60" y="40" width="20" height="20"/>
  <use xlink:href="#X" x="80" y="40" width="20" height="20"/>
  <use xlink:href="#_25" x="100" y="40" width="20" height="20"/>
  <use xlink:href="#X" x="120" y="40" width="20" height="20"/>
  <use xlink:href="#_25" x="140" y="40" width="20" height="20"/>
  <use xlink:href="#X" x="160" y="40" width="20" height="20"/>
  <use xlink:href="#o" x="180" y="40" width="20" height="20"/>
  <use xlink:href="#X" x="200" y="40" width="20" height="20"/>
  <use xlink:href="#X" x="0" y="60" width="20" height="20"/>
  <use xlink:href="#o" x="20" y="60" width="20" height="20"/>
  <use xlink:href="#X" x="40" y="60" width="20" height="20"/>
  <use xlink:href="#o" x="60" y="60" width="20" height="20"/>
  <use xlink:href="#X" x="80" y="60" width="20" height="20"/>
  <use xlink:href="#o" x="100" y="60" width="20" height="20"/>
  <use xlink:href="#X" x="120" y="60" width="20" height="20"/>
  <use xlink:href="#o" x="140" y="60" width="20" height="20"/>
  <use xlink:href="#X" x="160" y="60" width="20" height="20"/>
  <use xlink:href="#o" x="180" y="60" width="20" height="20"/>
  <use xlink:href="#X" x="200" y="60" width="20" height="20"/>
  <use xlink:href="#X" x="0" y="80" width="20" height="20"/>
  <use xlink:href="#o" x="20" y="80" width="20" height="20"/>
  <use xlink:href="#_30" x="40" y="80" width="20" height="20"/>
  <use xlink:href="#_30" x="60" y="80" width="20" height="20"/>
  <use xlink:href="#_30" x="80" y="80" width="20" height="20"/>
  <use xlink:href="#_30" x="100" y="80" width="20" height="20"/>
  <use xlink:href="#_30" x="120" y="80" width="20" height="20"/>
  <use xlink:href="#_30" x="140" y="80" width="20" height="20"/>
  <use xlink:href="#_30" x="160" y="80" width="20" height="20"/>
  <use xlink:href="#o" x="180" y="80" width="20" height="20"/>
  <use xlink:href="#X" x="200" y="80" width="20" height="20"/>
  <use xlink:href="#X" x="0" y="100" width="20" height="20"/>
  <use xlink:href="#_25" x="20" y="100" width="20" height="20"/>
  <use xlink:href="#o" x="40" y="100" width="20" height="20"/>
  <use xlink:href="#X" x="60" y="100" width="20" height="20"/>
  <use xlink:href="#o" x="80" y="100" width="20" height="20"/>
  <use xlink:href="#X" x="100" y="100" width="20" height="20"/>
  <use xlink:href="#o" x="120" y="100" width="20" height="20"/>
  <use xlink:href="#X" x="140" y="100" width="20" height="20"/>
  <use xlink:href="#o" x="160" y="100" width="20" height="20"/>
  <use xlink:href="#_25" x="180" y="100" width="20" height="20"/>
  <use xlink:href="#X" x="200" y="100" width="20" height="20"/>
  <use xlink:href="#X" x="0" y="120" width="20" height="20"/>
  <use xlink:href="#_30" x="20" y="120" width="20" height="20"/>
  <use xlink:href="#o" x="40" y="120" width="20" height="20"/>
  <use xlink:href="#X" x="60" y="120" width="20" height="20"/>
  <use xlink:href="#o" x="80" y="120" width="20" height="20"/>
  <use xlink:href="#X" x="100" y="120" width="20" height="20"/>
  <use xlink:href="#o" x="120" y="120" width="20" height="20"/>
  <use xlink:href="#X" x="140" y="120" width="20" height="20"/>
  <use xlink:href="#o" x="160" y="120" width="20" height="20"/>
  <use xlink:href="#_30" x="180" y="120" width="20" height="20"/>
  <use xlink:href="#X" x="200" y="120" width="20" height="20"/>
  <use xlink:href="#X" x="0" y="140" width="20" height="20"/>
  <use xlink:href="#o" x="20" y="140" width="20" height="20"/>
  <use xlink:href="#_25" x="40" y="140" width="20" height="20"/>
  <use xlink:href="#_25" x="60" y="140" width="20" height="20"/>
  <use xlink:href="#_25" x="80" y="140" width="20" height="20"/>
  <use xlink:href="#_25" x="100" y="140" width="20" height="20"/>
  <use xlink:href="#_25" x="120" y="140" width="20" height="20"/>
  <use xlink:href="#_25" x="140" y="140" width="20" height="20"/>
  <use xlink:href="#_25" x="160" y="140" width="20" height="20"/>
  <use xlink:href="#o" x="180" y="140" width="20" height="20"/>
  <use xlink:href="#X" x="200" y="140" width="20" height="20"/>
  <use xlink:href="#X" x="0" y="160" width="20" height="20"/>
  <use xlink:href="#o" x="20" y="160" width="20" height="20"/>
  <use xlink:href="#X" x="40" y="160" width="20" height="20"/>
  <use xlink:href="#o" x="60" y="160" width="20" height="20"/>
  <use xlink:href="#X" x="80" y="160" width="20" height="20"/>
  <use xlink:href="#o" x="100" y="160" width="20" height="20"/>
  <use xlink:href="#X" x="120" y="160" width="20" height="20"/>
  <use xlink:href="#o" x="140" y="160" width="20" height="20"/>
  <use xlink:href="#X" x="160" y="160" width="20" height="20"/>
  <use xlink:href="#o" x="180" y="160" width="20" height="20"/>
  <use xlink:href="#X" x="200" y="160" width="20" height="20"/>
  <use xlink:href="#X" x="0" y="180" width="20" height="20"/>
  <use xlink:href="#o" x="20" y="180" width="20" height="20"/>
  <use xlink:href="#X" x="40" y="180" width="20" height="20"/>
  <use xlink:href="#o" x="60" y="180" width="20" height="20"/>
  <use xlink:href="#X" x="80" y="180" width="20" height="20"/>
  <use xlink:href="#o" x="100" y="180" width="20" height="20"/>
  <use xlink:href="#X" x="120" y="180" width="20" height="20"/>
  <use xlink:href="#o" x="140" y="180" width="20" height="20"/>
  <use xlink:href="#X" x="160" y="180" width="20" height="20"/>
  <use xlink:href="#o" x="180" y="180" width="20" height="20"/>
  <use xlink:href="#X" x="200" y="180" width="20" height="20"/>
  <use xlink:href="#X" x="0" y="200" width="20" height="20"/>
  <use xlink:href="#o" x="20" y="200" width="20" height="20"/>
  <use xlink:href="#X" x="40" y="200" width="20" height="20"/>
  <use xlink:href="#o" x="60" y="200" width="20" height="20"/>
  <use xlink:href="#X" x="80" y="200" width="20" height="20"/>
  <use xlink:href="#o" x="100" y="200" width="20" height="20"/>
  <use xlink:href="#X" x="120" y="200" width="20" height="20"/>
  <use xlink:href="#o" x="140" y="200" width="20" height="20"/>
  <use xlink:href="#X" x="160" y="200" width="20" height="20"/>
  <use xlink:href="#o" x="180" y="200" width="20" height="20"/>
  <use xlink:href="#X" x="200" y="200" width="20" height="20"/>
  <use xlink:href="#_20" x="0" y="220" width="20" height="20"/>
  <use xlink:href="#_20" x="20" y="220" width="20" height="20"/>
  <use xlink:href="#v" x="40" y="220" width="20" height="20"/>
  <use xlink:href="#_20" x="60" y="220" width="20" height="20"/>
  <use xlink:href="#v" x="80" y="220" width="20" height="20"/>
  <use xlink:href="#_20" x="100" y="220" width="20" height="20"/>
  <use xlink:href="#v" x="120" y="220" width="20" height="20"/>
  <use xlink:href="#_20" x="140" y="220" width="20" height="20"/>
  <use xlink:href="#v" x="160" y="220" width="20" height="20"/>
</svg>